<svg id="Layer_1" data-name="Layer 1" xmlns="http://www.w3.org/2000/svg" viewBox="0 0 215.08 208.11"><path d="M97.92,171l.28-3.87h9.23v39.65H98.25l-.38-4.14a17.64,17.64,0,0,1-17.28,4,17.28,17.28,0,0,1-10-7.09c-5.63-8.22-4.88-20.61,1.57-27.37C78.85,165.2,87.84,164.71,97.92,171ZM87.35,197.6h2c5.3,0,8.15-2.45,8.62-7.66a30.69,30.69,0,0,0-.14-7c-.67-4.8-3.4-7-8.28-7.1-1.6,0-3.2,0-4.81,0a8.1,8.1,0,0,0-7.51,4.67C72.68,189.11,77.72,197.6,87.35,197.6Z"/><path d="M42.81,173c-2.8,0-5.45.13-8.06-.08a3,3,0,0,1-1.9-1.81c-.86-2.39-2.27-3.91-4.93-3.91-4,0-7.91-.07-11.86.12A4.79,4.79,0,0,0,11.2,172c-.24,6.67-.24,13.37,0,20.05a5.14,5.14,0,0,0,5.15,5.12,74.61,74.61,0,0,0,11.58,0c1.48-.15,2.78-1.89,4.2-2.86.91-.61,1.84-1.53,2.83-1.62,2.5-.23,5-.08,7.9-.08-1.56,6.58-4.88,11.19-11,13.27a31.5,31.5,0,0,1-17.06.61c-6.14-1.35-10.37-5-12.12-11.07a47.46,47.46,0,0,1-.15-26.26c1.82-6.59,6.42-10.24,13.08-11.37a33.9,33.9,0,0,1,16.79.93C38.39,160.76,42.35,166.06,42.81,173Z"/><path d="M214.34,197.05v9.77H181.09c0-3-.1-6,.07-9,.05-.77.91-1.57,1.53-2.22,5.93-6.22,11.88-12.41,17.9-18.68H181.27v-9.82h32.51c0,3,.1,6-.06,9a4.81,4.81,0,0,1-1.39,2.35c-4.36,5.1-8.76,10.15-13.14,15.23-.79.91-1.53,1.86-2.74,3.33Z"/><path d="M153.45,166.89l-12.29,40H123.82c-4.06-13.23-8.12-26.44-12.29-40,3.23,0,6.06-.15,8.85.1.73.07,1.7,1.25,2,2.1,2.75,8.63,5.34,17.3,8.09,25.93.31,1,1.33,1.71,2,2.55.69-.82,1.72-1.55,2-2.5,2.73-8.53,5.4-17.08,7.93-25.68.58-2,1.48-2.71,3.53-2.55C148.28,167,150.64,166.89,153.45,166.89Z"/><path d="M166.94,206.89h-9.47V167.14h9.27l.52,1.63,10.08-3c0,3.48.12,6.12-.09,8.73-.05.6-1.22,1.54-1.93,1.61-7,.64-8.16,1.82-8.22,8.88,0,6.23,0,12.46,0,18.69C167.08,204.75,167,205.77,166.94,206.89Z"/><path d="M47.22,167h9.11l.56,1.9,10-3.2c0,3.56.1,6.35-.09,9.12,0,.51-1.31,1.39-1.92,1.32-6.53-.74-8.1,3-8.19,8.74-.1,6.14,0,12.28,0,18.42v3.51H47.22Z"/><path d="M107.87,80.25c-16.51,0-33-.13-49.54.07-4.5.06-5.4-1.63-4.88-5.73C57,46.27,79.52,26.09,107.73,26.11c27.94,0,50.71,20.53,54.22,48.7.52,4.18-.68,5.6-5.07,5.54C140.55,80.12,124.21,80.26,107.87,80.25ZM83.42,67.78c5-16.68,16.19-25.72,31.18-31.22a7.21,7.21,0,0,0-3.27-1C90.74,34.8,73,48.19,67.39,68.8c-1.5,5.45-1,6.18,4.77,6.19q34.1,0,68.18,0c1.42,0,3.07.44,4.2-.14,1.54-.77,3.42-2.12,3.85-3.6.83-2.8-1.28-3.5-3.79-3.49-10.83,0-21.66,0-32.49,0Z"/><path d="M167.48,103.7c-4.49,6.12-9,10.26-16.78,10.19-28.59-.24-57.18-.28-85.77,0-8,.08-12.79-3.83-17.44-10.22Z"/><path d="M108,95.52q-30.91,0-61.83,0c-1.77,0-3.79.38-5.25-.33a6.18,6.18,0,0,1-3.16-3.94c-.14-.93,1.86-2.56,3.22-3.22,1.16-.57,2.79-.23,4.21-.23H169.94c1.42,0,3.05-.35,4.2.23,1.35.67,3.1,2.14,3.16,3.34s-1.44,3.11-2.73,3.73c-1.48.7-3.47.41-5.24.41Q138.69,95.54,108,95.52Z"/><path d="M112.54,19.18h-10c-1.42-3.73-2.34-6.86-3.76-9.74-2.28-4.63-1-7.75,4.1-8.42a35.51,35.51,0,0,1,9.55,0c5,.73,6.14,4,3.75,8.58C114.79,12.33,114,15.34,112.54,19.18Z"/><path d="M75.31,120.92a8.73,8.73,0,1,1-8.5,8.45A8.68,8.68,0,0,1,75.31,120.92Z"/><path d="M148.31,129.66a8.47,8.47,0,1,1-8.2-8.75A8.72,8.72,0,0,1,148.31,129.66Z"/><path d="M107.65,138.38a8.73,8.73,0,1,1,8.38-9.07A8.55,8.55,0,0,1,107.65,138.38Z"/></svg>