<svg id="Layer_1" data-name="Layer 1" xmlns="http://www.w3.org/2000/svg" viewBox="0 0 215.08 208.11"><path d="M108,119.89c-24.45,0-48.9-.19-73.34.11-6.66.08-8-2.42-7.22-8.48,5.28-41.93,38.6-71.8,80.35-71.77,41.36,0,75.07,30.39,80.27,72.09.77,6.18-1,8.29-7.51,8.2C156.4,119.69,132.21,119.9,108,119.89Zm-36.2-18.45c7.39-24.7,24-38.08,46.16-46.22a10.78,10.78,0,0,0-4.84-1.43c-30.47-1.18-56.7,18.65-65.05,49.15-2.21,8.06-1.45,9.15,7.07,9.16q50.46.08,100.92,0c2.1,0,4.55.64,6.23-.2,2.28-1.15,5.05-3.14,5.69-5.33,1.22-4.15-1.9-5.19-5.61-5.17-16,.07-32.06,0-48.09,0Z"/><path d="M196.28,154.61c-6.65,9-13.32,15.18-24.84,15.08-42.33-.36-84.66-.42-127,0-11.81.13-18.93-5.67-25.82-15.12Z"/><path d="M108.27,142.5q-45.76,0-91.52,0c-2.63,0-5.61.57-7.78-.48s-4.36-3.64-4.68-5.83c-.21-1.38,2.75-3.8,4.77-4.77,1.72-.84,4.12-.35,6.22-.35H199.91c2.1,0,4.52-.51,6.22.35,2,1,4.59,3.17,4.67,4.94s-2.13,4.61-4,5.52c-2.19,1-5.14.61-7.76.61Q153.64,142.52,108.27,142.5Z"/><path d="M114.94,29.48H100.17c-2.1-5.52-3.46-10.14-5.56-14.41C91.23,8.22,93.09,3.6,100.67,2.61a52.31,52.31,0,0,1,14.14.06c7.37,1.07,9.08,6,5.55,12.69C118.27,19.35,117.08,23.81,114.94,29.48Z"/><path d="M59.84,180.09a12.93,12.93,0,0,1-.07,25.85,12.93,12.93,0,0,1,.07-25.85Z"/><path d="M167.9,193a12.92,12.92,0,0,1-12.2,12.9c-6.93.23-12.9-5.76-12.89-12.94s6-13.17,12.94-12.91A12.86,12.86,0,0,1,167.9,193Z"/><path d="M107.7,205.94a12.68,12.68,0,0,1-12.54-12.41c-.22-7.43,5.19-13.34,12.31-13.44a12.93,12.93,0,0,1,.23,25.85Z"/></svg>