<svg id="Layer_1" data-name="Layer 1" xmlns="http://www.w3.org/2000/svg" viewBox="0 0 215.08 52.29"><path d="M97.91,14.84,98.19,11h9.24v39.7H98.24l-.38-4.15a17.7,17.7,0,0,1-17.3,4,17.39,17.39,0,0,1-10-7.1C65,35.19,65.71,22.79,72.17,16,78.83,9,87.82,8.55,97.91,14.84ZM87.33,41.47h2c5.3,0,8.16-2.45,8.63-7.66a30.78,30.78,0,0,0-.14-7c-.67-4.81-3.4-7-8.28-7.11-1.61,0-3.22,0-4.82,0a8.12,8.12,0,0,0-7.52,4.67C72.64,33,77.69,41.47,87.33,41.47Z"/><path d="M42.74,16.85c-2.8,0-5.45.13-8.07-.08A3,3,0,0,1,32.77,15c-.86-2.4-2.27-3.91-4.93-3.91-4,0-7.92-.08-11.87.11a4.79,4.79,0,0,0-4.87,4.69c-.24,6.69-.24,13.4,0,20.08a5.12,5.12,0,0,0,5.15,5.12,76,76,0,0,0,11.59,0c1.48-.15,2.79-1.9,4.21-2.87.9-.61,1.84-1.53,2.82-1.62,2.51-.24,5.06-.08,7.91-.08-1.56,6.59-4.88,11.2-11,13.28a31.47,31.47,0,0,1-17.08.61C8.56,49,4.32,45.36,2.57,39.31A47.47,47.47,0,0,1,2.41,13C4.24,6.42,8.84,2.76,15.51,1.64a33.87,33.87,0,0,1,16.81.92C38.32,4.6,42.29,9.9,42.74,16.85Z"/><path d="M214.44,40.93V50.7H181.17c0-3-.11-6,.07-9,0-.77.9-1.56,1.53-2.22,5.93-6.22,11.89-12.42,17.91-18.69H181.34V11h32.55c0,3,.1,6-.07,9a4.72,4.72,0,0,1-1.38,2.35c-4.37,5.11-8.78,10.17-13.16,15.25-.79.91-1.53,1.86-2.74,3.34Z"/><path d="M153.49,10.74c-4.16,13.56-8.22,26.78-12.3,40.05H123.84c-4.07-13.24-8.13-26.46-12.3-40,3.22,0,6.06-.14,8.85.1.73.07,1.7,1.25,2,2.11,2.75,8.63,5.34,17.31,8.09,26,.31,1,1.33,1.71,2,2.56.7-.83,1.73-1.55,2-2.51,2.73-8.54,5.4-17.1,7.94-25.7.58-2,1.48-2.71,3.53-2.56C148.32,10.87,150.68,10.74,153.49,10.74Z"/><path d="M167,50.77h-9.48V11h9.28l.52,1.63,10.09-3c0,3.49.12,6.13-.09,8.74,0,.61-1.22,1.55-1.93,1.61-7,.64-8.17,1.82-8.23,8.89,0,6.24,0,12.48,0,18.71C167.14,48.63,167.05,49.65,167,50.77Z"/><path d="M47.16,10.85h9.12l.56,1.91,10-3.21c0,3.56.1,6.36-.09,9.13,0,.51-1.31,1.39-1.92,1.32-6.54-.74-8.11,3-8.2,8.75-.1,6.14,0,12.29,0,18.44v3.52H47.16Z"/></svg>